ffmpeg started on 2016-11-28 at 06:42:38
Report written to "Output/NVENCh264/results/ffmpeg/old_town_cross_2160p50llhp12000k.log"
Command line:
Tools/ffmpeg/ffmpeg -benchmark -y -i Input/y4m/old_town_cross_2160p50.y4m -c:v h264_nvenc -preset llhp -b:v 12000k -an Output/NVENCh264/encoded/old_town_cross_2160p50llhp12000k.mkv
ffmpeg version N-82227-gdb23fde Copyright (c) 2000-2016 the FFmpeg developers
  built with gcc 5.4.0 (Ubuntu 5.4.0-6ubuntu1~16.04.2) 20160609
  configuration: --prefix=/home/jaroslav/ffmpeg_build --pkg-config-flags=--static --extra-cflags=-I/home/jaroslav/ffmpeg_build/include --extra-ldflags=-L/home/jaroslav/ffmpeg_build/lib --bindir=/home/jaroslav/bin --enable-gpl --enable-libass --enable-libfdk-aac --enable-libfreetype --enable-libmp3lame --enable-libopus --enable-libtheora --enable-libvorbis --enable-libvpx --enable-libx264 --enable-libx265 --enable-nvenc --enable-libmfx --enable-libxvid --enable-libgsm --enable-libopencore-amrnb --enable-version3 --enable-nonfree
  libavutil      55. 35.100 / 55. 35.100
  libavcodec     57. 66.101 / 57. 66.101
  libavformat    57. 57.100 / 57. 57.100
  libavdevice    57.  2.100 / 57.  2.100
  libavfilter     6. 66.100 /  6. 66.100
  libswscale      4.  3.100 /  4.  3.100
  libswresample   2.  4.100 /  2.  4.100
  libpostproc    54.  2.100 / 54.  2.100
Input #0, yuv4mpegpipe, from 'Input/y4m/old_town_cross_2160p50.y4m':
  Duration: 00:00:10.00, start: 0.000000, bitrate: 4976642 kb/s
    Stream #0:0: Video: rawvideo (I420 / 0x30323449), yuv420p(progressive), 3840x2160, SAR 1:1 DAR 16:9, 50 fps, 50 tbr, 50 tbn, 50 tbc
[h264_nvenc @ 0x2f28120] The variable bitrate rate-control requires the 'qmin' and/or 'qmax' option set.
Output #0, matroska, to 'Output/NVENCh264/encoded/old_town_cross_2160p50llhp12000k.mkv':
  Metadata:
    encoder         : Lavf57.57.100
    Stream #0:0: Video: h264 (h264_nvenc) (Main) (H264 / 0x34363248), yuv420p, 3840x2160 [SAR 1:1 DAR 16:9], q=-1--1, 12000 kb/s, 50 fps, 1k tbn, 50 tbc
    Metadata:
      encoder         : Lavc57.66.101 h264_nvenc
    Side data:
      cpb: bitrate max/min/avg: 0/0/12000000 buffer size: 24000000 vbv_delay: -1
Stream mapping:
  Stream #0:0 -> #0:0 (rawvideo (native) -> h264 (h264_nvenc))
Press [q] to stop, [?] for help
frame=   13 fps=0.0 q=0.0 size=       0kB time=00:00:00.00 bitrate=N/A speed=   0x    frame=   18 fps= 15 q=0.0 size=       0kB time=00:00:00.00 bitrate=N/A speed=   0x    frame=   21 fps= 12 q=0.0 size=       0kB time=00:00:00.00 bitrate=N/A speed=   0x    frame=   34 fps= 12 q=34.0 size=       1kB time=00:00:00.06 bitrate=  98.2kbits/s speed=0.0213x    frame=   45 fps= 13 q=33.0 size=       1kB time=00:00:00.28 bitrate=  21.3kbits/s speed=0.0829x    frame=   63 fps= 16 q=32.0 size=       1kB time=00:00:00.64 bitrate=   9.3kbits/s speed=0.164x    frame=   81 fps= 18 q=33.0 size=       1kB time=00:00:01.00 bitrate=   6.0kbits/s speed=0.227x    frame=   99 fps= 20 q=33.0 size=       1kB time=00:00:01.36 bitrate=   4.4kbits/s speed=0.276x    frame=  117 fps= 21 q=32.0 size=       1kB time=00:00:01.72 bitrate=   3.5kbits/s speed=0.316x    frame=  135 fps= 23 q=32.0 size=       1kB time=00:00:02.08 bitrate=   2.9kbits/s speed=0.349x    frame=  152 fps= 22 q=32.0 size=       1kB time=00:00:02.42 bitrate=   2.5kbits/s speed=0.356x    frame=  160 fps= 21 q=32.0 size=       1kB time=00:00:02.58 bitrate=   2.3kbits/s speed=0.346x    frame=  178 fps= 22 q=32.0 size=       1kB time=00:00:02.94 bitrate=   2.0kbits/s speed=0.368x    frame=  193 fps= 22 q=32.0 size=       1kB time=00:00:03.24 bitrate=   1.8kbits/s speed=0.369x    frame=  211 fps= 23 q=31.0 size=       1kB time=00:00:03.60 bitrate=   1.7kbits/s speed=0.388x    frame=  228 fps= 23 q=32.0 size=    5159kB time=00:00:03.94 bitrate=10723.7kbits/s speed=0.403x    frame=  236 fps= 23 q=32.0 size=    5159kB time=00:00:04.10 bitrate=10305.3kbits/s speed=0.395x    frame=  254 fps= 23 q=32.0 size=    5159kB time=00:00:04.46 bitrate=9473.7kbits/s speed=0.41x    frame=  272 fps= 24 q=32.0 size=    5159kB time=00:00:04.82 bitrate=8766.2kbits/s speed=0.423x    frame=  290 fps= 24 q=31.0 size=    7129kB time=00:00:05.18 bitrate=11272.5kbits/s speed=0.434x    frame=  308 fps= 25 q=33.0 size=    7129kB time=00:00:05.54 bitrate=10540.1kbits/s speed=0.445x    frame=  326 fps= 25 q=33.0 size=    7129kB time=00:00:05.90 bitrate=9897.1kbits/s speed=0.455x    frame=  344 fps= 26 q=31.0 size=    7129kB time=00:00:06.26 bitrate=9328.0kbits/s speed=0.465x    frame=  362 fps= 26 q=33.0 size=    7129kB time=00:00:06.62 bitrate=8820.8kbits/s speed=0.473x    frame=  380 fps= 26 q=32.0 size=    7129kB time=00:00:06.98 bitrate=8366.0kbits/s speed=0.481x    frame=  398 fps= 27 q=32.0 size=    7129kB time=00:00:07.34 bitrate=7955.7kbits/s speed=0.489x    frame=  416 fps= 27 q=33.0 size=    7129kB time=00:00:07.70 bitrate=7583.8kbits/s speed=0.496x    frame=  434 fps= 27 q=33.0 size=    7129kB time=00:00:08.06 bitrate=7245.1kbits/s speed=0.503x    frame=  452 fps= 27 q=33.0 size=    7129kB time=00:00:08.42 bitrate=6935.4kbits/s speed=0.509x    frame=  468 fps= 27 q=32.0 size=   12255kB time=00:00:08.74 bitrate=11485.4kbits/s speed=0.508x    frame=  484 fps= 27 q=32.0 size=   12255kB time=00:00:09.06 bitrate=11079.8kbits/s speed=0.511x    frame=  500 fps= 27 q=33.0 size=   12255kB time=00:00:09.38 bitrate=10701.9kbits/s speed=0.51x    frame=  500 fps= 27 q=32.0 Lsize=   14472kB time=00:00:09.98 bitrate=11877.8kbits/s speed=0.541x    
video:14467kB audio:0kB subtitle:0kB other streams:0kB global headers:0kB muxing overhead: 0.032509%
bench: utime=1.132s
bench: maxrss=1409200kB
